<svg xmlns="http://www.w3.org/2000/svg" width="96" height="96" viewBox="0 0 96 96" role="img" aria-labelledby="title desc">
  <title id="title">inSANE Crooked Copy mark</title>
  <desc id="desc">A geometric scanner outputs one slightly crooked page.</desc>
  <path fill="#302b27" d="M14 45h68c7 0 12 5 12 12v22c0 6-5 11-11 11H13C7 90 2 85 2 79V57c0-7 5-12 12-12Z"/>
  <path fill="#fffdf9" d="M15 60h56v5H15z"/>
  <circle cx="80" cy="63" r="4" fill="#6e3f47"/>
  <g transform="rotate(-7 50 44)">
    <rect x="27" y="7" width="47" height="52" rx="3" fill="#fffdf9" stroke="#302b27" stroke-width="3"/>
    <path fill="#756d65" d="M36 22h28v3H36zm0 9h23v3H36zm0 9h27v3H36z"/>
    <path fill="#6e3f47" d="M27 49h47v10H27z"/>
  </g>
</svg>
